inDegrees=yes
name=ik_lifting_orientations
DataType=double
version=3
OpenSimVersion=4.5-2024-01-10-34fd6af
endheader
time	pelvis_tilt	pelvis_list	pelvis_rotation	pelvis_tx	pelvis_ty	pelvis_tz	hip_flexion_r	hip_adduction_r	hip_rotation_r	knee_angle_r	knee_angle_r_beta	ankle_angle_r	subtalar_angle_r	mtp_angle_r	hip_flexion_l	hip_adduction_l	hip_rotation_l	knee_angle_l	knee_angle_l_beta	ankle_angle_l	subtalar_angle_l	mtp_angle_l	lumbar_extension	lumbar_bending	lumbar_rotation	arm_flex_r	arm_add_r	arm_rot_r	elbow_flex_r	pro_sup_r	wrist_flex_r	wrist_dev_r	arm_flex_l	arm_add_l	arm_rot_l	elbow_flex_l	pro_sup_l	wrist_flex_l	wrist_dev_l
1.47	-4.637039484128977	-4.710637468949785	-89.46180243462263	0	0.9399999998679526	0	45.01441297302801	-10.19556886678104	0	59.91238526994641	1.045668385683916	-5.056247055923229	0	0	45.01441297302801	-10.19556886678104	0	59.91238526994641	1.045668385683916	-5.056247055923229	0	0	-6.107419068511647	5.948186553634902	6.64991473132052	-7.810819160730455	-12.15460979961207	-1.108520791376135	71.04505047386155	1.826994222038247	0	0	0	-11.41072372925955	0	88.19798930253488	1.826994222038247	0	0
1.48	-4.208327703762686	-4.315466202363461	-88.75725095818231	0	0.9399999998679526	0	45.01440856932153	-10.19535975381947	0	59.9124062877253	1.04566875251336	-5.056168582731443	0	0	45.01440856932153	-10.19535975381947	0	59.9124062877253	1.04566875251336	-5.056168582731443	0	0	-5.658075984392129	5.619308966790586	5.783967116080077	-6.458866494908935	-12.79494725982228	-1.079915833119988	71.21861916407876	1.826605871574714	0	0	0	-11.41128528060391	0	88.19837230161704	1.826605871574714	0	0
1.49	-3.801076516856653	-3.959296133924743	-88.05271088003499	0	0.9399999998679526	0	45.01440410091634	-10.19514768895702	0	59.91242761239748	1.045669124699101	-5.056089024642845	0	0	45.01440410091634	-10.19514768895702	0	59.91242761239748	1.045669124699101	-5.056089024642845	0	0	-5.26110307654556	5.259131714092325	5.225095375625033	-5.226874458045886	-13.56395358122552	-1.217787780913475	72.63558846749773	1.826211802505486	0	0	0	-11.41185510399751	0	88.19876094050505	1.826211802505486	0	0
1.5	-3.408979506173936	-3.612609742886197	-87.27380698201732	0	0.9399999998679526	0	45.01440003961424	-10.19495520240451	0	59.91244700487993	1.04566946316177	-5.056016842579599	0	0	45.01440003961424	-10.19495520240451	0	59.91244700487993	1.04566946316177	-5.056016842579599	0	0	-4.860389807457632	4.9224034152432	4.59105732750661	-4.073585516131917	-14.26193106655324	-1.12598463515834	74.15717174707609	1.825853536979433	0	0	0	-11.41237326577752	0	88.19911426922003	1.825853536979433	0	0
1.51	-3.034294861717249	-3.252561035105372	-86.4229818136662	0	0.9399999998679526	0	45.0143957585634	-10.19475238874662	0	59.91246744314775	1.045669819876837	-5.055940807131371	0	0	45.0143957585634	-10.19475238874662	0	59.91246744314775	1.045669819876837	-5.055940807131371	0	0	-4.407114013814121	4.539249791301671	4.03533899294407	-2.999377035863912	-14.8956725602153	-1.188867542258381	75.68789407770495	1.825475887133406	0	0	0	-11.4129194504887	0	88.19948671514425	1.825475887133406	0	0
1.52	-2.740058838798365	-2.96140687262422	-85.62847071175646	0	0.9399999998679526	0	45.01439085651153	-10.19452017887062	0	59.91249083471251	1.045670228136659	-5.055853768883951	0	0	45.01439085651153	-10.19452017887062	0	59.91249083471251	1.045670228136659	-5.055853768883951	0	0	-4.006018893532016	4.21359510690861	3.53827696028895	-1.796774953239726	-15.58000641618627	-0.9806474499123905	77.23447823071193	1.825043506891013	0	0	0	-11.4135447130466	0	88.1999131372916	1.825043506891013	0	0
1.53	-2.452276491296987	-2.700895344858306	-85.04783936116134	0	0.9399999998679526	0	45.01438734219472	-10.19435402523586	0	59.91250762153962	1.045670521122063	-5.055791523737536	0	0	45.01438734219472	-10.19435402523586	0	59.91250762153962	1.045670521122063	-5.055791523737536	0	0	-3.689206963461636	3.909160700275988	3.380349204885175	-0.7142604174282567	-16.15160301564033	-1.023817421485364	78.46562760078352	1.824733388130871	0	0	0	-11.41399333918002	0	88.20021898269795	1.824733388130871	0	0
1.54	-2.191698090938182	-2.434017874256875	-84.49812325154949	0	0.9399999998679526	0	45.01438400184769	-10.19419622968363	0	59.91252358127849	1.045670799672054	-5.055732427641399	0	0	45.01438400184769	-10.19419622968363	0	59.91252358127849	1.045670799672054	-5.055732427641399	0	0	-3.387152100737258	3.622825280545308	3.272479371260603	0.3710781098018784	-16.72722702837449	-1.087352132453297	79.7125794811874	1.824438577801581	0	0	0	-11.41441986537921	0	88.20050973062206	1.824438577801581	0	0
1.55	-2.10250811205433	-2.324538218179295	-84.27273500122634	0	0.9399999998679526	0	45.01437867534381	-10.1939442446668	0	59.91254898746183	1.045671243093604	-5.055638046655759	0	0	45.01437867534381	-10.1939442446668	0	59.91254898746183	1.045671243093604	-5.055638046655759	0	0	-3.223167976440901	3.456880334503608	3.865761324184201	1.361546216905222	-17.36046447316088	-1.478557572480496	80.87159305067244	1.823968750224619	0	0	0	-11.41509924924365	0	88.20097308409126	1.823968750224619	0	0
1.56	-1.824378709716417	-2.055415812300397	-83.80200021497996	0	0.9399999998679526	0	45.01437548882509	-10.19379394712922	0	59.91256421447647	1.045671508855144	-5.055581795289184	0	0	45.01437548882509	-10.19379394712922	0	59.91256421447647	1.045671508855144	-5.055581795289184	0	0	-2.920061782111212	3.125419811691481	4.076098259643234	2.46109176466301	-18.17944346588102	-1.62579513034819	82.4114797884457	1.823687463035853	0	0	0	-11.41550625725904	0	88.20125049522356	1.823687463035853	0	0
1.57	-1.604125519199188	-1.809430009610602	-83.29173365446965	0	0.9399999998679526	0	45.01437226165155	-10.19364181178008	0	59.91257963619535	1.045671778014915	-5.055524869159111	0	0	45.01437226165155	-10.19364181178008	0	59.91257963619535	1.045671778014915	-5.055524869159111	0	0	-2.62861815033524	2.849258836804543	4.194458189292414	3.567108767819668	-18.74935600482683	-1.666852045797969	83.81989988185492	1.823402570058843	0	0	0	-11.41591849692208	0	88.20153146245852	1.823402570058843	0	0
1.58	-1.437647117415707	-1.634992319772376	-82.76830128901294	0	0.9399999998679526	0	45.01436887512997	-10.19348221722056	0	59.9125958173971	1.045672060430163	-5.055465163354183	0	0	45.01436887512997	-10.19348221722056	0	59.9125958173971	1.045672060430163	-5.055465163354183	0	0	-2.37847202283792	2.601023095007698	4.36022071705423	4.479319735424895	-19.05931140066329	-1.948011240170704	84.95971930065666	1.823103609470132	0	0	0	-11.41635108614117	0	88.20182630345795	1.823103609470132	0	0
1.59	-1.236844413597097	-1.411151044309138	-82.06318520568516	0	0.9399999998679526	0	45.01436337469024	-10.19322276611829	0	59.91262206544469	1.045672518545015	-5.055368100882403	0	0	45.01436337469024	-10.19322276611829	0	59.91262206544469	1.045672518545015	-5.055368100882403	0	0	-2.075119790731603	2.295696608350894	4.780976181066401	5.30148635076695	-19.34506737200403	-2.706357752245484	85.97243886924025	1.822618239663601	0	0	0	-11.41705313497296	0	88.20230498500126	1.822618239663601	0	0
1.6	-1.023759988970243	-1.173891829131343	-81.35376853459687	0	0.9399999998679526	0	45.01435668447622	-10.19290736217516	0	59.91265397982325	1.045673075556	-5.055250148195078	0	0	45.01435668447622	-10.19290736217516	0	59.91265397982325	1.045673075556	-5.055250148195078	0	0	-1.770240294851303	1.982470848083481	5.384100932397587	6.091896313958334	-19.84834425225317	-3.720234680553752	87.13908902552485	1.822027905574186	0	0	0	-11.41790694885786	0	88.20288718444837	1.822027905574186	0	0
1.61	-0.8123179018838299	-0.9371952336755628	-80.53476513826109	0	0.9399999998679526	0	45.01434979076171	-10.19258276038221	0	59.91268686922042	1.04567364958427	-5.05512881798537	0	0	45.01434979076171	-10.19258276038221	0	59.91268686922042	1.04567364958427	-5.05512881798537	0	0	-1.473224856245923	1.672905723444142	5.974451234298781	6.7193540741094	-20.51180965612963	-4.860989331303511	89.00398297552458	1.82141952133789	0	0	0	-11.41878695258402	0	88.20348718532242	1.82141952133789	0	0
1.62	-0.6122674219353607	-0.7254744592112917	-79.78841587357934	0	0.9399999998679526	0	45.01434510563515	-10.19236259283956	0	59.91270924138609	1.045674040052221	-5.055046574314388	0	0	45.01434510563515	-10.19236259283956	0	59.91270924138609	1.045674040052221	-5.055046574314388	0	0	-1.209594230063531	1.357384412191733	6.349011526701214	7.794699279026316	-20.88075520398609	-5.426394059695026	90.64609337028168	1.821005872267476	0	0	0	-11.41938547963873	0	88.20389513443565	1.821005872267476	0	0
1.63	-0.4192761401549375	-0.4902850830251165	-79.06158193613929	0	0.9399999998679526	0	45.01433955764208	-10.19210199427689	0	59.91273572634849	1.045674502302018	-5.05494925660485	0	0	45.01433955764208	-10.19210199427689	0	59.91273572634849	1.045674502302018	-5.05494925660485	0	0	-0.9024003347261754	1.014197470701055	7.29539178381471	8.522969051481558	-21.20295378322032	-6.896615297495361	91.84342861805145	1.82051605556663	0	0	0	-11.42009417953464	0	88.20437820161293	1.82051605556663	0	0
1.64	-0.2558224282250742	-0.277028817087444	-78.29516070505474	0	0.9399999998679526	0	45.01433375009161	-10.19182944637124	0	59.91276345021937	1.045674986174846	-5.05484751793059	0	0	45.01433375009161	-10.19182944637124	0	59.91276345021937	1.045674986174846	-5.05484751793059	0	0	-0.6355665879896352	0.7174994269606769	8.555435057192588	9.113837896658067	-21.69276319782735	-8.593581053083669	93.22407673392628	1.820003279190862	0	0	0	-11.42083613069939	0	88.20488391209101	1.820003279190862	0	0
